<?xml version="1.0"?>
<svg xmlns="http://www.w3.org/2000/svg" xmlns:xlink="http://www.w3.org/1999/xlink" xmlns:svgjs="http://svgjs.com/svgjs" version="1.1" width="300" height="70" x="0" y="0" viewBox="0 0 512 512" style="enable-background:new 0 0 512 512" xml:space="preserve"><g>
<linearGradient xmlns="http://www.w3.org/2000/svg" id="SVGID_1_" gradientUnits="userSpaceOnUse" x1="132.0002" y1="257.9999" x2="380.0001" y2="257.9999" gradientTransform="matrix(1 0 0 -1 0 514)"><stop stop-opacity="1" stop-color="#ffffff" offset="0"/><stop stop-opacity="1" stop-color="#ffffff" offset="0.9768339768339769"/><stop stop-opacity="1" stop-color="#ffffff" offset="1"/><stop stop-opacity="1" stop-color="#42445a" offset="1"/><stop stop-opacity="1" stop-color="#ffffff" offset="1"/><stop stop-opacity="1" stop-color="#f5f5f5" offset="1"/></linearGradient>
<path xmlns="http://www.w3.org/2000/svg" style="fill:url(#SVGID_1_);" d="M241.843,506.134c-0.006-0.006-0.013-0.011-0.019-0.018l-104-104.504  c-7.791-7.829-7.762-20.492,0.068-28.285c7.829-7.792,20.492-7.762,28.284,0.067L236,443.558V20c0-11.046,8.954-20,20-20  s20,8.954,20,20v423.557l69.824-70.162c7.792-7.829,20.455-7.859,28.284-0.067c7.831,7.793,7.858,20.457,0.068,28.285l-104,104.504  c-0.006,0.006-0.013,0.011-0.019,0.018C262.339,513.968,249.635,513.943,241.843,506.134z" fill=""/>
<g xmlns="http://www.w3.org/2000/svg">
</g>
<g xmlns="http://www.w3.org/2000/svg">
</g>
<g xmlns="http://www.w3.org/2000/svg">
</g>
<g xmlns="http://www.w3.org/2000/svg">
</g>
<g xmlns="http://www.w3.org/2000/svg">
</g>
<g xmlns="http://www.w3.org/2000/svg">
</g>
<g xmlns="http://www.w3.org/2000/svg">
</g>
<g xmlns="http://www.w3.org/2000/svg">
</g>
<g xmlns="http://www.w3.org/2000/svg">
</g>
<g xmlns="http://www.w3.org/2000/svg">
</g>
<g xmlns="http://www.w3.org/2000/svg">
</g>
<g xmlns="http://www.w3.org/2000/svg">
</g>
<g xmlns="http://www.w3.org/2000/svg">
</g>
<g xmlns="http://www.w3.org/2000/svg">
</g>
<g xmlns="http://www.w3.org/2000/svg">
</g>
</g></svg>
